:SAMPLES-PER-SECOND 30
:FRAME-RANGE 1-744
:FULLY-SPECIFIED
:DEGREES
140
root  -33.4172 38.8523 -106.162 -10.3886 7.01237 6.27589
RightUpLeg  6.28764 16.4004 -3.1465
RightLeg  59.4553 4.9787 8.60138
RightFoot  4.82949 -2.43292 17.2418
RightToes  5.82063e-011 0 -3.6325e-017
Spine  14.1615 7.17715 3.64621
Spine1  -0.0961311 8.69524 -10.7663
HEad  -0.663013 49.2474 -7.87847
LeftShoulder1  2.68887 -3.05306 -34.9479
LeftArm  10.329 13.8055 -31.2861
LeftForeArm  9.25794 -1.62892 -17.8783
LeftHand  -1.17206 -5.7334 12.5094
RightShoulder  9.80335 8.09365 71.1077
RightArm  16.7416 4.01412 -4.16023
RightForeArm  15.4235 3.914 14.9525
RightHand  0.854192 20.4607 3.30225
LeftUpLeg  -2.53095 -3.61448 -10.3119
LeftLeg  15.2377 3.82588 3.80377
LeftFoot  -4.64111 -0.309173 5.75527
LeftToes  1.25507e-010 -3.78807e-010 5.71421e-011
141
root  -32.9508 39.0629 -104.661 -11.168 7.78348 5.61554
RightUpLeg  1.57883 15.5713 -3.33139
RightLeg  61.9719 3.02428 5.64153
RightFoot  1.58657 -1.5366 13.5998
RightToes  5.82063e-011 0 -3.6325e-017
Spine  14.5296 6.56695 4.30027
Spine1  -1.13151 8.09341 -10.4791
HEad  0.241269 50.5745 -6.74575
LeftShoulder1  2.68305 -3.05272 -34.8812
LeftArm  11.6316 12.6337 -31.8676
LeftForeArm  8.21452 -4.25968 -17.1865
LeftHand  -1.1656 -5.5859 12.6018
RightShoulder  8.6317 6.77658 70.7185
RightArm  15.3553 2.9779 -4.95004
RightForeArm  17.3314 1.95481 15.3065
RightHand  0.953177 20.1606 3.79429
LeftUpLeg  1.46681 -2.24011 -10.3441
LeftLeg  14.0495 2.23787 3.59146
LeftFoot  -6.53896 -0.241174 6.68404
LeftToes  1.25507e-010 -3.78807e-010 5.71421e-011
142
root  -32.5145 39.2531 -103.201 -11.8926 8.77007 4.84735
RightUpLeg  -2.50715 14.7532 -3.51387
RightLeg  60.9566 1.59053 2.60433
RightFoot  -0.997817 -1.12885 12.3519
RightToes  5.82063e-011 0 -3.6325e-017
Spine  15.0112 5.92893 4.85378
Spine1  -2.01999 7.48723 -9.89112
HEad  -0.105477 51.768 -6.63239
LeftShoulder1  2.68932 -3.07536 -34.8368
LeftArm  15.0802 11.1893 -32.5115
LeftForeArm  5.61654 -7.8723 -15.9705
LeftHand  -1.27338 -5.70673 13.5853
RightShoulder  7.44194 5.48314 69.9328
RightArm  13.6843 1.90144 -5.61437
RightForeArm  17.9618 0.343461 15.4613
RightHand  0.911556 19.8812 3.65467
LeftUpLeg  5.59107 -0.859704 -10.0716
LeftLeg  12.2788 0.34288 3.49017
LeftFoot  -8.10677 -0.152806 7.13332
LeftToes  1.25507e-010 -3.78807e-010 5.71421e-011
143
root  -32.1042 39.3853 -101.783 -12.3454 10.1705 4.04027
RightUpLeg  -5.95384 14.0396 -3.81547
RightLeg  56.7797 0.716055 0.74771
RightFoot  -3.84359 -0.706896 10.3607
RightToes  5.82063e-011 0 -3.6325e-017
Spine  15.2063 5.28833 5.26658
Spine1  -2.56859 6.89322 -9.12374
HEad  -1.71086 52.4133 -7.43472
LeftShoulder1  2.74681 -3.25094 -34.6306
LeftArm  19.3005 9.4315 -33.2803
LeftForeArm  1.51707 -11.642 -14.1619
LeftHand  -1.34001 -6.03873 13.8767
RightShoulder  6.15701 4.04418 69.0912
RightArm  13.0228 0.863385 -6.45109
RightForeArm  17.1802 0.11387 15.4613
RightHand  0.986822 19.754 4.02064
LeftUpLeg  9.18866 0.379013 -9.27856
LeftLeg  10.7927 -2.03272 2.98746
LeftFoot  -9.49418 -0.0716884 7.98311
LeftToes  1.25507e-010 -3.78807e-010 5.71421e-011
144
root  -31.7092 39.4823 -100.397 -12.7892 11.9017 3.05193
RightUpLeg  -8.09175 13.8121 -4.03208
RightLeg  49.201 -0.70603 -1.21901
RightFoot  -5.78409 -0.515728 9.78991
RightToes  5.82063e-011 0 -3.6325e-017
Spine  15.3144 4.55251 5.92636
Spine1  -2.77628 6.28448 -8.31839
HEad  -4.19786 52.6029 -9.0659
LeftShoulder1  2.77844 -3.37596 -34.3568
LeftArm  23.4496 7.3686 -34.0465
LeftForeArm  -3.20094 -15.0686 -11.937
LeftHand  -1.38116 -6.19259 14.1075
RightShoulder  4.89364 2.59873 68.1562
RightArm  12.9033 -0.211819 -7.22684
RightForeArm  15.5661 1.41929 15.1821
RightHand  1.3184 19.6294 5.56619
LeftUpLeg  12.9171 1.46579 -8.04848
LeftLeg  8.79447 -4.67945 2.60984
LeftFoot  -10.6869 0.0135676 8.88523
LeftToes  1.25507e-010 -3.78807e-010 5.71421e-011
145
root  -31.3384 39.5097 -99.0686 -12.9503 13.6949 2.16533
RightUpLeg  -9.18066 14.4846 -4.59795
RightLeg  38.5442 -3.40715 -3.17366
RightFoot  -6.00998 -0.470394 9.20357
RightToes  5.82063e-011 0 -3.6325e-017
Spine  15.5526 3.94678 6.53482
Spine1  -3.22576 5.77539 -7.59263
HEad  -6.4075 52.2804 -10.8592
LeftShoulder1  2.81844 -3.51341 -34.1399
LeftArm  26.5458 5.09005 -34.6083
LeftForeArm  -6.76041 -17.6245 -9.87677
LeftHand  -1.47764 -6.38755 14.8212
RightShoulder  3.74605 1.27434 66.9445
RightArm  13.228 -0.84404 -7.76083
RightForeArm  13.6516 2.88234 14.9148
RightHand  1.56981 19.7203 6.69192
LeftUpLeg  16.0426 2.21201 -6.85595
LeftLeg  7.18752 -7.20576 2.54575
LeftFoot  -12.0243 0.128384 9.35866
LeftToes  1.25507e-010 -3.78807e-010 5.71421e-011
146
root  -30.9784 39.4618 -97.6922 -12.9011 15.3143 1.56517
RightUpLeg  -8.56578 18.127 -5.62954
RightLeg  24.5196 -8.22244 -4.29167
RightFoot  -4.67852 -0.587664 9.52573
RightToes  5.82063e-011 0 -3.6325e-017
Spine  15.2499 3.55944 7.03104
Spine1  -3.1925 5.48414 -7.10444
HEad  -8.36924 51.652 -12.608
LeftShoulder1  2.83833 -3.59469 -33.9631
LeftArm  27.1687 2.7246 -35.0452
LeftForeArm  -8.92653 -19.1038 -8.5483
LeftHand  -1.42511 -6.24923 14.4738
RightShoulder  2.93357 0.322475 65.774
RightArm  13.8786 -1.32471 -8.1543
RightForeArm  12.0159 4.46244 14.5473
RightHand  1.55626 19.7537 6.62032
LeftUpLeg  18.9069 3.08036 -5.56412
LeftLeg  5.80576 -9.69263 2.35144
LeftFoot  -13.3323 0.253881 9.95881
LeftToes  1.25507e-010 -3.78807e-010 5.71421e-011
147
root  -30.6287 39.2686 -96.2052 -12.5407 16.8428 1.44193
RightUpLeg  -6.35854 13.4485 -5.20882
RightLeg  8.10466 -1.65754 -6.39208
RightFoot  -3.66622 -0.687456 9.85183
RightToes  5.82063e-011 0 -3.6325e-017
Spine  14.1594 3.32671 7.09089
Spine1  -2.62645 5.28436 -7.00152
HEad  -9.60179 50.8719 -13.7021
LeftShoulder1  2.86206 -3.68848 -33.7744
LeftArm  27.2912 1.04037 -34.9263
LeftForeArm  -11.8266 -20.9809 -6.96735
LeftHand  -1.41673 -6.38985 14.2274
RightShoulder  2.48719 -0.195669 64.7522
RightArm  14.5581 -1.55722 -8.4031
RightForeArm  10.1468 6.2231 14.037
RightHand  1.5797 19.7751 6.72085
LeftUpLeg  21.3622 3.84974 -4.58932
LeftLeg  5.22454 -12.0433 2.15035
LeftFoot  -15.2817 0.445773 10.2513
LeftToes  1.25507e-010 -3.78807e-010 5.71421e-011
148
root  -30.2902 38.9319 -94.601 -12.3109 18.3536 1.51996
RightUpLeg  -5.1931 1.62839 -4.54377
RightLeg  -5.02729 13.2912 -9.83579
RightFoot  -5.33036 -0.570713 10.1514
RightToes  5.82063e-011 0 -3.6325e-017
Spine  12.7796 3.1674 6.84894
Spine1  -1.94017 5.11754 -6.95884
HEad  -10.0196 50.1862 -14.2712
LeftShoulder1  2.87688 -3.73327 -33.7337
LeftArm  25.1153 -0.0756911 -34.2704
LeftForeArm  -14.3982 -22.5822 -6.01752
LeftHand  -1.44556 -6.50976 14.3676
RightShoulder  2.37078 -0.284497 63.6233
RightArm  15.2081 -1.41206 -8.38828
RightForeArm  8.24749 7.70187 13.5463
RightHand  1.54084 19.6508 6.57988
LeftUpLeg  23.7781 4.33793 -3.84849
LeftLeg  5.56926 -13.826 2.13498
LeftFoot  -17.9714 0.703722 10.2496
LeftToes  1.25507e-010 -3.78807e-010 5.71421e-011
149
root  -29.9742 38.5715 -93.0135 -12.4991 19.729 1.41354
RightUpLeg  -6.09649 -0.687386 -5.39816
RightLeg  -8.37427 18.564 -9.15067
RightFoot  -8.87046 -0.340611 12.9348
RightToes  5.82063e-011 0 -3.6325e-017
Spine  12.2617 3.01136 7.07375
Spine1  -1.73271 5.02573 -6.83557
HEad  -9.6504 49.4944 -14.55
LeftShoulder1  2.91219 -3.78052 -33.9587
LeftArm  20.5078 -0.840337 -32.856
LeftForeArm  -18.7572 -24.0707 -6.03585
LeftHand  -1.25539 -5.97939 13.0931
RightShoulder  2.5961 0.0906803 62.5086
RightArm  16.1113 -0.969859 -8.19062
RightForeArm  5.92283 9.16816 13.0311
RightHand  1.49211 19.5167 6.39478
LeftUpLeg  26.2832 4.48532 -3.05737
LeftLeg  6.44587 -15.1358 2.38256
LeftFoot  -20.5399 0.938107 10.0939
LeftToes  1.25507e-010 -3.78807e-010 5.71421e-011
150
root  -29.7453 38.2382 -91.4369 -13.4588 20.3169 0.564926
RightUpLeg  -5.93579 -0.31063 -4.55402
RightLeg  -6.6402 20.7468 -8.71835
RightFoot  -9.48762 -0.327392 16.1276
RightToes  5.82063e-011 0 -3.6325e-017
Spine  12.9147 3.06709 8.23976
Spine1  -2.01772 5.21747 -6.58402
HEad  -8.61449 48.9876 -14.5436
LeftShoulder1  2.95909 -3.8209 -34.3737
LeftArm  15.024 -1.30047 -31.0074
LeftForeArm  -21.6708 -25.103 -6.39839
LeftHand  -1.2676 -5.42188 13.8655
RightShoulder  3.34528 1.18402 61.7629
RightArm  16.2769 -0.0543842 -7.90323
RightForeArm  3.83378 10.2159 12.6017
RightHand  1.32 19.1549 5.69501
LeftUpLeg  28.5568 3.71209 -1.92485
LeftLeg  8.81218 -14.8493 2.43349
LeftFoot  -22.9915 1.07766 9.18338
LeftToes  1.25507e-010 -3.78807e-010 5.71421e-011
151
root  -29.5557 38.0625 -89.8367 -14.4364 20.8199 -0.174911
RightUpLeg  -5.13721 1.22921 -3.0979
RightLeg  -3.01017 19.1046 -8.39459
RightFoot  -2.52065 -1.5247 19.3716
RightToes  5.82063e-011 0 -3.6325e-017
Spine  12.9577 3.04053 9.47907
Spine1  -1.37244 5.39547 -6.20691
HEad  -7.47946 48.7624 -14.1475
LeftShoulder1  2.96183 -3.84326 -34.2894
LeftArm  9.75145 -1.0422 -28.8337
LeftForeArm  -24.8637 -26.2559 -6.8031
LeftHand  -1.28563 -5.0351 14.5544
RightShoulder  4.61661 2.95924 61.7498
RightArm  15.6073 1.34782 -7.31703
RightForeArm  2.77988 11.0217 12.1481
RightHand  0.990142 18.7352 4.23554
LeftUpLeg  30.1189 -2.73104 -4.08847
LeftLeg  12.6897 -8.45864 1.44096
LeftFoot  -23.807 0.744473 5.50002
LeftToes  1.25507e-010 -3.78807e-010 5.71421e-011
